<svg width="48" height="48" xmlns="http://www.w3.org/2000/svg" xmlns:xlink="http://www.w3.org/1999/xlink"><defs><path id="a" d="M.854.488h1.034V1H.854z"/><path id="c" d="M.14.456h.228v1.321H.139z"/><path id="e" d="M.145.781h.223v1H.145z"/><path id="g" d="M.941.535h1V1h-1z"/><path id="i" d="M.867.82h1V1h-1z"/><path id="k" d="M.038.999h.33v1h-.33z"/><path id="m" d="M.016.645h1V1h-1z"/><path id="o" d="M.536.982h.832v1H.536z"/><path id="q" d="M.205.903h.163v1H.205z"/><path id="s" d="M.922.372h.446v1H.922z"/><path id="u" d="M.24.482h1V1h-1z"/><path id="w" d="M.21.947h.158v1H.209z"/><path id="y" d="M.287.319h.081v1h-.08z"/><path id="A" d="M.324.037h.044v1H.324z"/><path id="C" d="M.407.724h.961v1H.407z"/><path id="E" d="M.074.35h1V1h-1z"/><path id="G" d="M.452.562h.916v1H.452z"/><path id="I" d="M.196.045h.172v1H.196z"/><path id="K" d="M.222.192h.146v1H.222z"/><path id="M" d="M.245.617h.123v1H.245z"/><path id="O" d="M.15.95h1V1h-1z"/><path id="Q" d="M.173.789h1V1h-1z"/><path id="S" d="M.366.037h.002v1H.366z"/></defs><g fill="none" fill-rule="evenodd"><path d="M44.953 16.762c0-.472-.229-.944-.595-1.275a1.479 1.479 0 0 0-1.329-.236c-.092.047-8.526 2.455-15.677 0-8.067-2.738-18.702-.142-19.16-.048A1.608 1.608 0 0 0 7 16.762l.091 19.546c0 .473.23.945.596 1.228.367.283.872.425 1.284.283.092-.047 10.176-2.502 17.418-.047 2.75.944 5.638 1.228 8.25 1.228 4.998 0 9.031-1.18 9.26-1.228.642-.189 1.101-.803 1.101-1.511l-.047-19.5z" fill="#C3F4C9"/><path d="M7.858 33.215l-.007.027-.004-.037.011.01zm-.11-3.772v-.038l.01.02-.01.018zm15.138 5.995l.043.001-.01.015-.033-.016zm21.618-4.853l.01.005-.006.034-.004-.039zM7.834 31.68c.004-.017.01-.028.014-.042l.003.045c-.002.013-.006.024-.01.035-.001-.013-.007-.03-.007-.038zm-.048-.95c-.005.002-.012-.012-.016-.019l.012-.06.013.04a1.945 1.945 0 0 0-.009.038zm36.765-5.711c-.003.018-.011.031-.017.046 0-.017 0-.031-.002-.05.001-.015.007-.026.011-.039.003.016.009.035.008.043zm.188-5.476c0 .005-.007.005-.011.007l.012-.095v.088zm-6.506-3.905l.023.01-.052.002.03-.012zm6.646 16.315l.011-.057v.051l-.01.006zM39.483 15.42c.013-.002.028 0 .042 0l-.048.013c-.014.002-.027 0-.04-.002l.046-.011zm6.284 8.169c-.002-.018-.006-.036-.006-.053.001-.015.006-.029.01-.044l.006.053-.01.044zM18.151 35.094c-.019-.004-.03-.01-.046-.016l.05-.002c.013.001.024.006.036.01-.014.003-.033.009-.04.008zM45.73 25.049c-.002-.017-.006-.034-.005-.05l.01-.095.003.051-.008.094zM33 39.69c-.03.004-.062.012-.089.01-.024-.004-.04-.017-.062-.027l.097-.009.054.026zm11.965-11.93c0 .01-.014.028-.02.042-.004-.035-.005-.074-.008-.104 0-.008.008-.019.012-.028.006.03.013.06.016.09zM34.848 39.806c.012 0 .035.003.053.005-.024.005-.048.014-.072.014l-.228-.01.247-.01zM7.796 29.864c.01-.022.019-.06.028-.06.009 0 .016.044.025.068l-.029.063-.024-.071zm24.165 9.895c-.02-.01-.059-.022-.055-.029.006-.01.04-.02.068-.02.022-.001.055.012.103.024l-.116.025zM7.866 33.876c-.014-.036-.035-.07-.037-.11-.002-.048.013-.1.02-.151l.04.097-.023.164zm36.897-15.258l.015-.002v.322h-.014v-.32zm-8.862 21.158c-.036.004-.085-.01-.128-.016.025-.01.046-.025.076-.029.048-.007.102-.006.203-.01-.074.029-.106.049-.151.055zM7.867 34.334c.012.083.024.16.037.235 0 0-.012.023-.017.02-.042-.025-.043-.124-.047-.216 0-.016.005-.033.008-.049.007.003.017 0 .019.01zm36.697-10.348l.026.012-.021.448-.038-.001.033-.46zm.406 5.22c-.002.138.022.294-.032.396-.003.006-.014-.007-.018-.018-.032-.089-.03-.143.034-.484.012.075.016.092.016.107zm-.042 8.592c.01-.01.03.01.013.034-.132.21-.32.349-.588.46l.575-.494zm-33.309-2.136l.36-.055c-.29.106-.29.107-.85.165l.49-.11zm-3.644.361c.002.008-.01.022-.018.033-.002.004-.013.007-.017.005-.063-.024-.101-.088-.052-.18.054.05.081.084.087.142zm-.097-.363c.001-.247 0-.489-.049-.71-.003-.014.012-.084.018-.083.019.002.05.019.053.046.016.183.031.367.038.553.003.052 0 .106-.004.167-.004.058-.009.148-.013.152-.024-.011-.044-.091-.043-.125zm20.92-19.793l.696.108c.182.033.37.035.538.105-.38.003-.75-.077-1.235-.213zm-8.904 19.3l-.47.011c-.14.002-.278-.005-.334-.087.462.03.904-.016 1.322.1-.174-.017-.346-.02-.518-.024zm-12.36-1.995l-.019-.454.004-1.819.074 2.38-.033.031c-.008-.046-.023-.09-.025-.138zM32.88 16.223l.058.002c.079.005.162.014.146.05-.007.015-.064.036-.106.036a5.52 5.52 0 0 1-.46-.005l-1.433-.105c-.076-.004-.15-.024-.225-.036l-.019-.03c.681.044 1.36.1 2.04.088zM8.71 36.258c-.064.014-.093.006-.14.007-.005 0-.014-.01-.012-.013a.106.106 0 0 1 .017-.038c.003-.005.013-.01.022-.01l.652-.134.746-.14.504-.105c.053-.01.112.01.168.017-.038.018-.073.045-.114.053l-.978.18.001.005-.866.178zm18.763-20.681a7.913 7.913 0 0 0-.721-.208 11.933 11.933 0 0 1-1.398-.386c-.175-.056-.364-.082-.633-.14.508.05 1.267.272 1.997.472.745.201 1.45.452 1.805.531-.401-.051-.721-.17-1.05-.27zm13.766 22.846c-.075.011-.153.02-.226.036-1.073.233-2.155.316-3.239.413-.398.03-.793.06-1.21.073.05-.063.158-.055.232-.06a45.86 45.86 0 0 0 1.598-.123 37.297 37.297 0 0 0 1.987-.237c.756-.112 1.51-.25 2.26-.408.091-.019.184-.027.275-.04l.005-.003c-.554.168-1.117.263-1.682.35zm-26.87-3.127c.028-.007.064-.003.205-.006l-.351.047c-.056.02-.109.053-.17.062-.503.07-1.004.092-1.56.162.063-.038.086-.063.119-.068.534-.097 1.077-.174 1.613-.156l.144-.041zm.657.03a.245.245 0 0 1-.098-.01c-.017-.009-.024-.029-.008-.037.127-.062.317-.071.487-.087.074-.006.154.02.232.033l.456-.07c-.165.107-.165.1-.453.068l-.616.103zm25.327 3.861l.115.163c-.07.008-.116.017-.128.013-.055-.02-.1-.042-.147-.064a9.765 9.765 0 0 1-.147-.006c-.015 0-.02-.008-.03-.012.028-.005.072-.018.082-.015.036.01.061.024.09.036l.165-.115zm.743.114c-.013-.055.11-.103.147-.147l-.095-.015c.015-.002.04-.009.044-.007.018.007.032.016.046.024.066.067.066.067-.142.145zm-23.81-4.185a.754.754 0 0 1-.34.004l-.003.002.343-.006zm-9.242 1.068c.015.016.03.032.048.046l.029.022h.032l.003.014-.035-.016-.028-.02a.365.365 0 0 1-.049-.047zm31.563 3.207l.002-.001h-.002zm.565-25.232c-.047.001-.096-.008-.144-.001-.552.084-1.104.23-1.662.239-.744.094-1.488.167-2.233.215a6.721 6.721 0 0 1-.643-.01c-.14-.008-.264-.034-.411.006a.216.216 0 0 1-.089-.006c-.071-.136-.355-.085-.564-.089-.522.003-1.044.003-1.56-.057-.188-.02-.394-.013-.586-.023-.215-.006-.407-.008-.595-.09-.09-.04-.259-.06-.396-.077l-.575-.087c-.455-.067-.91-.138-1.34-.266l-1.201-.303a3.8 3.8 0 0 1-.795-.259 6.403 6.403 0 0 0-.69-.245c-.42-.124-.843-.258-1.267-.334-.119-.026-.253-.049-.354-.086a5.954 5.954 0 0 0-1.125-.27 32.777 32.777 0 0 0-3.57-.367l-1.023-.035c-.859-.015-1.718-.03-2.568.022-.675.029-1.34.103-2.007.175-.51.042-1.028.076-1.524.174a.665.665 0 0 1-.118.01c-.3-.005-.583.068-.872.115l-.523.08c-.757.119-1.514.25-2.266.399l-1.038.228c-.193.044-.392.075-.58.128l-.263.07a6.103 6.103 0 0 0-.426.121 3.257 3.257 0 0 0-1.886 1.72c-.133.298-.22.616-.256.94a3.95 3.95 0 0 0-.02.492l.007.321.025 1.087c.006.343-.024.711.013 1.023.045.383.035.75.04 1.128.01.24.017.493.026.741.004.114.017.23.012.34-.023.44-.006.875.01 1.314.013.34.023.685-.047 1a1.25 1.25 0 0 0-.015.277c.003.065.023.126.036.19l.076-.13c.006.07.01.135.015.18l.034 1.599c.002.28-.02.562-.033.842-.004.05-.021.095-.033.142-.053.371-.055.735.006 1.11.022.132.022.294.027.443v.342l.082 2.05c.013.445.076.9 0 1.346-.01.047-.004.114-.002.17l.04 1.886.051 2.008a3.01 3.01 0 0 0 .462 1.601c.146.231.342.432.555.602.682.545 1.625.752 2.468.514l1.26-.278.748-.177c.322-.07.657-.152.973-.177.298-.025.587-.069.88-.102l3.258-.404c.318-.03.614-.062.92-.015.15.024.32.015.438-.055.114-.065.294-.067.505-.061l-.181.074c.433.073.806.057 1.153-.049l.109.005.004-.002-.116-.004c.004.041.008.091.16.092.418.006.841.04 1.253.015.195-.007.389-.004.587.046.451.105.926.144 1.384.172.277.01.521.01.75.124.032.02.099.034.15.045.556.133 1.131.218 1.665.396l.992.273c.44.138.886.262 1.333.368.228.058.464.09.688.152.237.06.461.108.695.126.13.01.272.033.408.056.199.031.154.068.115.104l-.004-.002.477-.017c.03.035.047.07.095.103a.45.45 0 0 0 .173.064c.217.016.466.043.57-.036l-.09-.072c-.004-.003.019-.008.028-.012.022.008.059.017.061.025.007.02 0 .039 0 .059.31-.01.634.038.954.061h-.003c-.049.023-.083.051-.15.066-.052.012-.146 0-.214.006-.026.001-.05.018-.046.028.003.012.041.033.066.035l.57.049h-.005c.038 0 .089-.006.112 0 .342.093.732.031 1.077.102.039.009.11-.006.163-.011.275-.03.574-.06.816-.085.098-.007.222.014.335.022l-.007-.002.405.016c.274.002.553-.008.821.004.473.009.853-.022 1.09-.204.088-.069.243-.115.486-.083.121.016.3-.008.455-.022.112-.01.148-.038.178-.08.047-.063.124-.074.22-.033.198.086.594.068.739.178.044.033.306-.007.485-.075l-.248-.026c.215-.042.406-.07.595-.081.11-.007.244-.007.307.012.059.018.034.07.045.101.61-.038 1.179-.203 1.755-.275.054-.006.113-.025.17-.04.15-.043.2-.09.15-.14-.01-.01-.05-.014-.054-.026-.008-.024-.002-.052 0-.079l.205-.031c.072-.008.174-.004.185-.046.022-.087.178-.104.278-.098.115.005.214.017.356-.013.108-.023.203-.05.102-.08-.073-.021.002-.053.078-.07a.658.658 0 0 1 .203-.022c.1.023.189.024.336-.046.07-.036.156-.064.303-.108l.012-.003c.182-.05.342-.1.328-.031-.017.059.09.06.284-.035.4-.196.746-.498.99-.868.079-.115.152-.275.17-.365.04-.207.1-.373.168-.667.062-.294.086-.457.135-.625l-.001.006c.055-.386.056-.344-.065-.35-.006 0-.012-.018-.023-.037l.04-.429c.023-.178.05.054.084-.026-.003-.125.012-.302-.013-.418-.05-.242-.032-.48-.027-.725l-.002.003.073.21c.005-.198.002-.33.015-.449.014-.135.044-.257.07-.401-.028-.113-.11-.136-.107-.378l.157-.039c.1-.683.1-.683.034-1.128-.09.18-.103.446-.092.724-.063.048-.056-.081-.07-.149l-.013-.065.009.026.002.043c.007-.106.021-.214.019-.318-.011-.16-.026-.36-.037-.534.059-.09.065.043.087.095.03.067.064.123.097.184l-.001-.235-.013-.04.011.045c.023-.023.064-.034.066-.07.007-.087 0-.187-.006-.28-.007-.134-.028-.209-.085-.16-.016.016-.044.012-.056-.017-.046-.112-.095-.226-.128-.366-.018-.08-.007-.212-.01-.321.032.008.063.02.094.021.013 0 .025-.023.042-.04l.045-.36c-.057-.034-.11.048-.127-.198-.018-.32-.035-.64-.03-.962.005-.239.007-.49.062-.712l.121.146.011-.025c.027-.145.066-.288.022-.458-.009-.037-.03-.05-.046-.074-.009.048-.016.099-.023.144l-.001.055v-.002c-.084-.032-.116-.182-.111-.403l.047-2.4.056-3.261c.004-.272.032-.575-.064-.804-.02-.046-.014-.181-.015-.276l-.005-.63a3.18 3.18 0 0 0-.04-.378c-.006-.04-.032-.086-.046-.082-.015.003-.035.065-.038.108-.015.302-.034.606-.035.91-.001.49-.087.968-.026 1.468a.95.95 0 0 1-.007.225 1.517 1.517 0 0 0-.004.492c.018.113.015.264.01.395l-.049 1.424c-.008.229.013.5-.025.677-.056.267.015.472.005.702-.004.067-.015.171-.03.187-.085.084-.085.276-.09.469-.03 1.045-.074 2.09-.083 3.138-.004.524-.04 1.006-.101 1.488l.002-.005c-.02-.096-.043-.192-.072-.322-.008.096-.013.13-.013.166.001.233.046.45-.005.705-.026.123-.03.38.051.49l.005-.047-.006.044c-.07.269-.123.57-.107.903.012.283.03.552-.016.821-.005.029.002.075.006.11.043.346.045.35.005.52a.462.462 0 0 0 .002.253.688.688 0 0 1-.01.41.595.595 0 0 0-.02.309c.01.07.024.143.02.218a3.72 3.72 0 0 1-.171.909c-.128.186-.243.414-.405.601a1.47 1.47 0 0 1-.959.503c.188-.061.365-.142.528-.244.59-.356.926-1.057.892-1.751.015-.602-.025-1.187.036-1.77.01-.09.002-.19.004-.285.006-.208.012-.421.016-.627l.015-1.028c0-.104-.027-.208-.043-.311l.001.001.06-.885c-.136-.087-.136-.087-.117-.55.12-.05.137-.079.155-.335l.023-.51c.01-.25.017-.498.026-.742l.054-1.768c.003-.133 0-.269-.007-.4-.004-.088-.011-.2-.072-.158-.023.302-.045.632-.195.656a1.01 1.01 0 0 1 .055-.5c.088-.243.09-.542.058-.854-.008-.073-.024-.14-.029-.213-.013-.246-.025-.487.017-.729.024-.13.03-.29.03-.44 0-.08-.023-.053-.034.008-.003.016-.005.036-.01.048-.002.006-.01-.004-.022-.012l.052-1.017c.005-.079.04-.142.06-.213l-.003.005c-.026-.17-.057-.32-.042-.534.028-.391.046-.793.052-1.193l.031-2.977c0-.095.006-.193 0-.286-.032-.44-.01-.876-.002-1.314l.008-.286c0-.071.002-.16-.052-.134l-.072.992-.115 1.45c-.015.172-.022.34.02.493v-.003c0 .211-.029.403-.047.602-.017.18.014.403.005.615l-.046 1.48c-.022.606-.042 1.208-.063 1.824l-.082 1.989-.08 2.508-.05 1.422c-.001.022-.016.04-.028.063l-.048-.953a.875.875 0 0 1 .011-.166c.057-.309.037-.63.028-.954l-.007-.796c.005-.206.009-.419.012-.63l-.012-.043.012.046c.052-.162.078-.352.087-.568l.037-.793.104-1.975c.005-.094.013-.195.005-.283-.036-.387.01-.757.021-1.133l.014-.852c0-.065-.017-.13-.042-.297l-.075.729c.01.712-.03 1.408-.077 2.103.009-.706.015-1.413.079-2.1l.025-1.029c.004-.113-.004-.281.067-.305.012-.004.026-.082.03-.132.033-.527.059-1.056.02-1.594l-.017-.471c.032-.027.065-.038.066-.061.017-.345-.029-.665-.059-.996l-.126 1.376-.05.61c-.032.582-.05 1.173-.097 1.746-.056.69-.093 1.385-.104 2.092-.007.158-.015.334-.021.511-.034.603-.068 1.231-.099 1.81-.033.909-.064 1.79-.098 2.676l-.1 3.023-.085 3.142-.004.057-.05 1.163-.022 1.08a.78.78 0 0 1-.038.214 1.008 1.008 0 0 1-.813.688c-.521.119-1.18.262-1.768.37l-.497.088c-.994.162-1.995.281-2.996.367-.929.08-1.86.134-2.788.143a33.9 33.9 0 0 1-3.274-.147c-1.324-.122-2.634-.323-3.902-.657-.827-.207-1.57-.497-2.522-.761-.452-.147-.91-.237-1.367-.33a12.584 12.584 0 0 0-1.375-.236c-.491-.072-.982-.154-1.475-.189-.83-.092-1.658-.119-2.487-.142-1.24.004-2.477.043-3.705.154-.468.03-.935.083-1.394.08-.09.022-.178.05-.27.062l-1.617.25c-.789.123-1.578.256-2.364.424-.806.148-.874.297-1.214.193a.738.738 0 0 1-.508-.683l-.002-.086c-.006-.692-.012-1.378-.016-2.068 0-.008.008-.018.026-.05.011.09.027.171.03.254l.01.745c.008.32.018.653.028.97l.003.14c-.014.232.078.47.262.613a.692.692 0 0 0 .426.15c.081-.001.14-.028.233-.05l.405-.094a47.397 47.397 0 0 1 4.572-.768l.629-.093c1.517-.167 3.05-.23 4.59-.237 1.716.007 3.46.142 5.166.543l.534.113c.04.008.083.004.14.006l-.213-.096c.298.054.541.101.81.182-.049-.04-.062-.061-.09-.071-.354-.147-.719-.219-1.103-.302-.232-.045-.464-.118-.691-.178-.036-.008-.064-.054-.056-.076.005-.015.082-.018.119-.028.102-.025.072-.07-.086-.096l-.36-.055c-.552-.078-.977-.136-1.74-.242-.129-.023-.28-.023-.42-.032-.524-.044-1.04-.03-1.56-.049-.72-.028-1.436-.015-2.152-.003-1.229.053-2.449.152-3.661.296-1.235.144-2.452.358-3.678.574-.334.086-.673.16-1.018.236-.238.049-.245.066-.323.068a.349.349 0 0 1-.352-.353 9.499 9.499 0 0 1-.013-.466l-.066-3.724c-.01-.76-.018-1.483-.029-2.236l-.073-2.4-.068-3.32-.03-.97c-.02-.552-.053-1.106-.05-1.656l-.038-2.106-.017-1.373-.012-.687c-.004-.189-.012-.212.01-.325l.04-.158a.601.601 0 0 1 .49-.41l.512-.126.875-.19.769-.153c.713-.146 1.428-.28 2.15-.39a48.8 48.8 0 0 1 2.225-.296l1.004-.1c.371-.042.743-.059 1.115-.089l.56-.035c.653-.016 1.307-.068 1.962-.044.712.017 1.416.018 2.12.072.54.018 1.074.13 1.606.152.097.003.216.038.323.062.259.049.503.105.76.123.115.007.249.042.372.064l.316.056c.199.032.403.04.594.101.3.086.602.206.898.273.3.068.614.142.937.239l.68.19c.856.187 1.717.336 2.586.446.365.062.734.08 1.1.103l1.213.054c.392.022.767.03 1.15.017.397-.006.738-.074 1.108-.117.025-.003.059-.027.05-.034a.184.184 0 0 0-.099-.039c-.07-.003-.15 0-.226.004-.418.012-.836.037-1.255.034a.226.226 0 0 1-.125-.059c-.01-.01.053-.037.094-.039.325-.015.668-.031.96-.103.073-.02.223-.006.334 0 .15.011.294.023.443.027a.8.8 0 0 0 .212-.014c.16-.104.262-.042.376-.002h.003l.057-.002.057-.004h-.002c.032-.12-.009-.15-.26-.146-.206.004-.415.026-.623.038-.079.006-.188.029-.238-.029l1.245-.085c.148-.007.275.001.33.067.06.074.087.066.328-.003.073-.021.172-.035.259-.04.302-.013.613-.015.902-.064.518-.078 1.065-.106 1.555-.26.712-.089 1.35-.31 2.016-.493.075-.02.182-.073.192-.1.015-.043-.105-.032-.197-.014l-.94.173-.277.05c.286-.097.573-.17.861-.243.23-.064.46-.126.683-.2l.339-.103.167-.053.065-.02.008-.001h.004l.003.001.071.14.151.287-.14-.459a2.162 2.162 0 0 1 1.361.044c.159.06.31.137.45.234l.031.026c.14.112.266.238.378.378.088.11.166.26.254.289a2.535 2.535 0 0 0-.41-.675l-.126-.097-.04-.033-.048-.03c-.032-.022-.046-.03-.067-.046.021.007.041.01.063.023l.06.042.015.01.026.024.12.11c.112.094.218.197.314.314.08.097.155.213.22.32.067.107.108.293.192.374a2.315 2.315 0 0 0-.15-.42 2.713 2.713 0 0 0-.598-.807l-.022-.02-.028-.022-.059-.045c-.32-.24-.677-.361-.917-.496-.088-.052-.36-.102-.572-.095a2.428 2.428 0 0 0-.605.082l.298.975-.326-.641-.13-.276.003-.003.016-.012.033-.018c.019-.007-.047.008-.067.012l-.184.037-.386.075c-.58.112-1.17.226-1.763.31.307-.074.613-.138.92-.197.317-.062.579-.219.913-.245a.212.212 0 0 0 .088-.035c.063-.081.192-.103.332-.137l.1-.024a.314.314 0 0 0-.059.024l-.027.016-.008.003.172.374c.119.248.243.495.373.737l-.361-1.18a2.818 2.818 0 0 1 1.338-.061c.218.039.487.147.555.1a2.399 2.399 0 0 0-.264-.122 2.625 2.625 0 0 0-1.667-.037l.4 1.3a16.966 16.966 0 0 1-.56-1.144c-.065-.142-.023-.06-.032-.085l.006-.004.013-.007.054-.023c.066-.02-.007 0-.02.003l-.156.04c-.15.037-.32.085-.479.069.356-.1.364-.099.549-.207-.21.052-.357.09-.506.128-.189.048-.376.087-.485.194-.047.046-.152.029-.211.011l.003.001c-.216.042-.423.129-.648.127h.002z" fill="#C3F4C9"/><path d="M18 15.11c.2-.068.41-.103.667-.11.815.003 1.634-.007 2.445.06.834.038 1.66.145 2.48.286.402.085.794.15 1.191.221.36.088.715.199 1.072.302.051.016.126.06.14.085.027.048-.055.052-.136.041a2.043 2.043 0 0 1-.25-.052l-.772-.202-.789-.147a16.585 16.585 0 0 0-1.588-.238c-.712-.11-1.44-.121-2.158-.172l-2.18-.047c-.03 0-.057-.012-.122-.027M34 16.983l-.278.014c-.55.012-1.103-.016-1.654-.047-.462-.013-.92-.071-1.38-.12-.462-.04-.92-.112-1.378-.197a12.6 12.6 0 0 1-1.398-.29l-.06-.015c-.25-.08-.485-.187-.755-.224-.023-.004-.091-.05-.096-.069-.006-.018.03-.033.069-.035a.78.78 0 0 1 .17.028l1.379.334c.478.088.943.174 1.397.256.774.107 1.547.212 2.325.245.081.005.168 0 .243.013.326.057.646.057.97.049.137-.002.28.01.42.015l.026.043zM11.619 35.636c.61-.116 1.228-.184 1.83-.295.707-.132 1.419-.198 2.132-.267.413-.037.83-.05 1.246-.074a.834.834 0 0 1 .16.011c.014.002.019.03.005.04a.18.18 0 0 1-.088.03c-.588-.014-1.158.076-1.73.155l-.45.04c-.637.05-1.269.135-1.891.272-.073.016-.154.035-.222.036-.374.006-.737.094-1.101.192-.143.037-.293.061-.441.087-.023.004-.061-.007-.068-.019-.005-.01.008-.037.032-.047a1.12 1.12 0 0 1 .198-.074l.388-.076v-.01zM26.584 36.57c-.407-.12-.816-.225-1.28-.304l-1.244-.216c-.025-.005-.06-.025-.06-.034 0-.008.043-.019.066-.015.333.047.662.095.991.143l.524.113c.59.114 1.24.243 1.695.365.517.122 1.05.215 1.587.302.045.008.111.03.128.045.036.032-.044.035-.12.028a3.436 3.436 0 0 1-.23-.028l-.459-.082c-.543-.089-1.032-.198-1.602-.316h.004zM20.142 35.068c.296-.011.562.05.858.148-.072.019-.106.036-.146.036-.446 0-.884-.052-1.339-.104-.286-.04-.606-.02-.91-.018-.183 0-.358.017-.521-.03-.04-.01-.086-.034-.084-.051.002-.017.066-.044.101-.045.484-.017.973.028 1.458.05.199.01.397.035.586.013h-.003zM31 36.821a4.73 4.73 0 0 1-1.035-.157A16.75 16.75 0 0 1 28 36.045v.002l.013-.047-.002.001c.857.283 1.738.506 2.638.656.184.03.292.082.347.166l.004-.002zM36.373 37.379L36 37.346c.091-.027.129-.05.167-.052.384-.04.763-.076 1.15-.115a36.628 36.628 0 0 0 1.547-.177c.042-.006.084.005.136.007-.342.14-.342.135-.595.157l-.5.05c-.367.044-.734.07-1.1.097a1.31 1.31 0 0 0-.436.068l.004-.002zM44.004 35.988c0-.011-.008-.027-.001-.032.035-.029.039-.075.04-.114.016-.106.025-.186.052-.382.016-.096-.003-.233-.004-.35-.002-.35-.01-.704.084-1.11.047.377.099.66.036.965a2.725 2.725 0 0 0-.043.692c.007.169.007.128.004.17a.184.184 0 0 1-.03.071.367.367 0 0 1-.115.102l-.023-.012M34.065 37.1c-.05-.024-.1-.051-.03-.08a.266.266 0 0 1 .09-.015c.374.002.748-.02 1.122.015.189.018.387.021.582.019a.53.53 0 0 1 .171.022 1.835 1.835 0 0 1-.695.082c-.353-.023-.705-.061-1.065-.01-.047.007-.12-.023-.18-.035l.041-.012-.036.014zM46.83 36c.076.09.087.182.07.325-.035.523-.195 1.03-.584 1.474a.832.832 0 0 1-.193.164c-.055.033-.096.04-.121.036-.01-.001.023-.053.053-.082.392-.387.648-.839.718-1.318L46.83 36M8.048 36c.006.158.01.072.014.109.022.074.059.132.122.148l-.006.039-.016.025c-.008.006-.02.011-.02.011a.223.223 0 0 1-.141-.216L8 36.093s.011.018.048-.093" fill="#C3F4C9"/><g transform="translate(37 39)"><mask id="b" fill="#fff"><use xlink:href="#a"/></mask><path d="M.854.659L1.38.51c.172-.041.393-.026.438.034.05.07.06.149.07.227.002.013-.09.037-.137.056-.037-.013-.11-.026-.103-.041.036-.085-.073-.11-.288-.107-.145 0-.281-.011-.506-.021" fill="#C3F4C9" mask="url(#b)"/></g><path d="M45.035 21.995c-.013-.102-.04-.215-.034-.306l.14-1.615c.003-.038.036-.064.056-.074.007-.004.026.067.025.1-.03.66-.044 1.332-.189 1.9l.002-.005zM9 36.492l.007-.036s.247-.068.389-.104l.486-.122.97-.222a.298.298 0 0 1 .063-.008c.032.003.08.005.085.015.003.011-.028.04-.054.047l-.555.134L9 36.492M26.992 36.485a2.385 2.385 0 0 1-.664-.251 2.347 2.347 0 0 1-.255-.153c-.034-.022-.049-.054-.073-.081.04.003.08-.006.119.009l.248.101.2.098.433.231-.01.046h.002zM8.037 30.15L8 29.155c-.001-.05.015-.142.028-.15.041-.025.052.069.055.152l.044 1.565c.002.078-.011.16-.019.24-.002.016-.016.039-.016.039-.015-.006-.039-.021-.04-.04l-.033-.805.018-.004zM41.088 36.355l-.054-.018c-.038-.015-.055-.054.007-.076l.733-.243c.05-.018.1-.007.226-.018a3.62 3.62 0 0 1-.589.233l-.325.121.002.001z" fill="#C3F4C9"/><g transform="translate(46 24)"><mask id="d" fill="#fff"><use xlink:href="#c"/></mask><path d="M.24.456l.034 1.136a.423.423 0 0 1-.033.167c-.015.028-.06.02-.06.005C.142 1.394.111 1.018.174.648.187.573.218.522.241.46L.24.456z" fill="#C3F4C9" mask="url(#d)"/></g><path d="M9 16.328l.949-.327c.015-.005.047.009.05.02.004.012-.012.037-.03.048-.06.031-.123.073-.187.091l-.703.19c-.017.005-.035-.009-.079-.022M36.443 16.045c.164.033.325-.027.487-.045a.244.244 0 0 1 .07.013.224.224 0 0 1-.048.062c-.006.007-.026.012-.04.014-.281.058-.564.08-.847.116-.02.002-.056-.012-.062-.023-.008-.012.001-.038.016-.043l.333-.089.002.001.09-.007v.001zM8.029 22c.06.295.108.586.094.902-.002.04-.03.098-.045.098-.02 0-.05-.044-.055-.084A4.252 4.252 0 0 1 8.029 22M31 37.042c.049-.014.099-.047.145-.041.278.039.56.055.855.127-.237.057-.334.058-.958-.054L31 37.042zM39 37.161c.387-.148.682-.155.977-.161.01 0 .026.01.022.015-.01.016-.027.042-.045.045a5.78 5.78 0 0 1-.954.101M8 33.315l.03-.303c.002-.013.034-.018.038-.002a2.1 2.1 0 0 1 .015.759c-.002.013-.015.027-.02.022-.013-.017-.034-.038-.036-.066a64.952 64.952 0 0 0-.027-.41M44.001 36L44 35.061c0-.023.021-.061.032-.061.012 0 .032.03.036.054.035.29.026.566-.067.946M30 37.001l.915.151c.032.005.065.039.085.06.004.005-.051.019-.083.018a2.276 2.276 0 0 1-.912-.23l-.005.001zM40 37.138c.305-.103.51-.155.732-.133.03.002.055.018.051.03-.003.013-.04.036-.07.044a2.11 2.11 0 0 1-.713.059" fill="#C3F4C9"/><g transform="translate(46 23)"><mask id="f" fill="#fff"><use xlink:href="#e"/></mask><path d="M.29 1.456H.24l.001.004-.034-.095a.984.984 0 0 1-.04-.541c.026-.128.102.043.158.368l.011.131.003-.005-.052.144.002-.006z" fill="#C3F4C9" mask="url(#f)"/></g><path d="M45.256 38.387c-.104.03-.256.07-.256.058.002-.029.038-.082.117-.125l.426-.239a.648.648 0 0 1 .197-.08c.023.002-.021.068-.074.115a2.723 2.723 0 0 1-.41.271M25.777 35.194c.002.045-.025.084-.182.035-.203-.072-.398-.125-.595-.183-.007-.072.138-.043.237-.02.184.036.363.11.544.17l-.004-.002zM8.021 27c.08.202.083.399.08.587a1.097 1.097 0 0 1-.045.284c-.019.065-.059-.104-.056-.296.005-.159.011-.336.021-.575" fill="#C3F4C9"/><g transform="translate(39 39)"><mask id="h" fill="#fff"><use xlink:href="#g"/></mask><path d="M1.528.6l-.29.07c-.104.021-.23.06-.287.013C.9.643 1.057.54 1.184.535c.108-.003.19.033.344.064" fill="#C3F4C9" mask="url(#h)"/></g><path d="M45.046 22.817a1.862 1.862 0 0 1-.001-.817l-.002.005c.069.071.101.199.07.402l-.069.404.002.006zM8.017 31c.052.344.062.673.008 1L8 31.166c0-.054.011-.11.017-.166M33 37.018c.216-.015.435-.048.598.05.007.006.001.019-.011.022-.229.053-.407-.012-.587-.072M46.078 22v.645c-.002.041-.033.075-.05.111-.01-.054-.03-.114-.028-.164l.043-.577.035-.015z" fill="#C3F4C9"/><g transform="translate(33 39)"><mask id="j" fill="#fff"><use xlink:href="#i"/></mask><path d="M1.112.82c.045.036.1.071.13.108.015.02.001.058-.029.061a.863.863 0 0 1-.248.003C.908.982.858.942.868.92.89.872.966.832 1.12.822L1.112.82z" fill="#C3F4C9" mask="url(#j)"/></g><path d="M40.12 37l.323.017c.017.002.019.032.001.04a.488.488 0 0 1-.154.047c-.104-.002-.194-.021-.29-.032l.12-.072M15.21 15.09l-.183-.005c-.013-.001-.026-.012-.027-.02-.002-.006.004-.017.02-.022a.961.961 0 0 1 .43-.033c.016.002.03.01.031.018.003.006-.005.02-.017.022l-.254.04" fill="#C3F4C9"/><g transform="translate(46 34)"><mask id="l" fill="#fff"><use xlink:href="#k"/></mask><path d="M.149 1.247c-.007.048-.011.113-.02.117-.02.01-.047.013-.061-.017a.554.554 0 0 1-.03-.17C.038 1.12.05 1.059.058.999c.02.029.043.047.058.089.015.043.024.109.034.159" fill="#C3F4C9" mask="url(#l)"/></g><path d="M8.025 23c.037.223.043.448.023.709-.06-.265-.06-.265-.023-.709M5.034 18.528L5 18.088c-.002-.027.016-.084.027-.088.012-.004.036.033.038.06l.017.445-.048.023zM43 39.179c.208-.108.379-.143.548-.177.031-.006.065.004.098.006-.038.024-.072.06-.113.068l-.533.103M44 32.823c.006-.287.041-.552.068-.823.045.324.039.611-.067.826L44 32.823zM8.049 18.012l.004.769c-.064-.252-.051-.518-.053-.781l.049.012zM8.056 21l.014.374c0 .024-.022.068-.034.07-.012 0-.036-.041-.036-.063l.009-.375.047-.006z" fill="#C3F4C9"/><g transform="translate(37 39)"><mask id="n" fill="#fff"><use xlink:href="#m"/></mask><path d="M.048.737C.038.715-.002.687.025.673A.482.482 0 0 1 .204.646c.078.004.203.02.201.038C.403.732.287.753.16.752.118.75.082.74.043.735l.005.002z" fill="#C3F4C9" mask="url(#n)"/></g><path d="M32.09 37.001l.487.089c-.018.078-.175.045-.278.036-.101-.009-.199-.033-.299-.05l.094-.076-.004.001zM8.034 26.5c-.013-.082-.033-.164-.034-.246a.86.86 0 0 1 .031-.233c.023-.07.054.04.054.223l-.013.257h-.038zM31.344 37.07c-.083.017-.144.04-.171.033-.065-.016-.116-.045-.173-.07.037-.011.082-.037.109-.032.071.013.135.039.235.069M43.002 36.003l.009-.003.055.033-.012.036s-.009.005-.013.001L43 36.032l.002-.029zM43.38 37.007c-.036.024-.057.045-.088.055-.1.034-.206.065-.283.039-.011-.004-.011-.021-.004-.023.072-.026.145-.057.22-.074.048-.01.099.002.156.003M41.332 37.044l-.278.053c-.02.003-.036-.017-.054-.027l.265-.07c.008-.002.029.02.067.044M34 37.04c.156-.046.331-.067.625.019L34 37.04M44.095 36.057c-.01.022-.022.05-.04.07-.006.007-.029.007-.039 0-.01-.006-.017-.025-.016-.036a.128.128 0 0 1 .02-.059c.006-.002.025-.042.037-.03.013.017.02.036.038.055M35.227 37.042a9.918 9.918 0 0 0-.174.034c-.019-.017-.051-.034-.053-.052-.001-.007.067-.026.087-.024.043.006.078.022.14.042M8.03 25.331a1.672 1.672 0 0 1-.03-.223c-.002-.031.011-.073.02-.104.003-.009.021-.001.022.005l.016.297s-.027.034-.029.025M8.013 34c.012.092.023.151.025.21l.003.505c-.048-.356-.048-.356-.028-.715M46.004 23.565L46 23.107c0-.036.014-.07.023-.107.05.027.05.149.052.251a.51.51 0 0 1-.074.307l.003.007zM46.002 30.718l.001-.718c.081.382.082.382-.003.714l.002.004zM9.031 36.05c-.011.01-.021.022-.031.021 0 0 0-.034.002-.052L9.028 36l.003.05M37 37.072c.068-.07.186-.064.282-.072.025-.002.054.013.075.022 0 0-.022.016-.038.018l-.319.032M45.07 24.103c-.019.044-.032.095-.04.088-.013-.009-.027-.053-.03-.088-.002-.03.011-.068.018-.103l.052.103" fill="#C3F4C9"/><g transform="translate(45 16)"><mask id="p" fill="#fff"><use xlink:href="#o"/></mask><path d="M.536 1.171c.025-.073.041-.145.062-.188.006-.013.028.06.042.095a1.601 1.601 0 0 1-.053.24c-.004.01-.023-.068-.05-.147" fill="#C3F4C9" mask="url(#p)"/></g><path fill="#C3F4C9" d="M46 23.006h.052L46.049 23l-.006.704h-.03l-.01-.704z"/><g transform="translate(46 26)"><mask id="r" fill="#fff"><use xlink:href="#q"/></mask><path d="M.25.903l.03.13c-.012.02-.029.064-.036.054C.228 1.061.218 1.011.205.971L.25.903" fill="#C3F4C9" mask="url(#r)"/></g><path d="M46 24.125c.012-.055.02-.09.026-.125.016.041.035.078.046.126.003.016-.013.066-.021.101L46 24.125zM44.008 32.002c.052.271.052.271-.008.613l.009-.615-.001.002zM8.015 17.237c-.006-.062-.015-.118-.015-.174-.001-.021.021-.042.032-.063.008.054.019.106.023.162.001.015-.02.041-.04.075M8 19h.03l.016.244c-.012 0-.032.004-.033-.003A31.227 31.227 0 0 1 8 19" fill="#C3F4C9"/><g transform="translate(45 16)"><mask id="t" fill="#fff"><use xlink:href="#s"/></mask><path d="M1.028.525L1.016.74.936.508A.412.412 0 0 1 .924.372C.95.39.981.45 1.028.525" fill="#C3F4C9" mask="url(#t)"/></g><path d="M44.089 36c-.003.025-.001.046-.008.048a.31.31 0 0 1-.081.009c.003-.012.002-.03.009-.033a3.43 3.43 0 0 0 .08-.024M8.008 25.212L8 25.032c0-.011.02-.022.029-.032.003.039.01.08.008.117-.002.029-.015.052-.029.095M33.133 37.074L33 37.021c.046-.008.091-.02.141-.021.029-.001.066.015.099.024l-.107.05M36.105 37l.072.025c-.029.01-.075.031-.086.029-.037-.008-.062-.022-.091-.033l.105-.021zM8.072 16l-.04.071L8 16.06l.004-.019.071-.04L8.072 16zM8.047 17.051l-.03.03A.215.215 0 0 1 8 17.016c0-.007.021-.011.032-.016l.015.051M43.071 37l.086.009c-.024.015-.05.042-.069.045-.033.005-.059-.004-.088-.008l.071-.046zM16 15.012c.042-.004.084-.012.123-.012.014 0 .019.022.028.033-.041.005-.083.013-.121.013-.013 0-.02-.022-.03-.034" fill="#C3F4C9"/><g transform="translate(40 39)"><mask id="v" fill="#fff"><use xlink:href="#u"/></mask><path d="M.394.5C.364.512.336.529.306.534.286.537.26.523.24.517.268.504.296.487.326.482.346.479.372.493.394.5" fill="#C3F4C9" mask="url(#v)"/></g><g transform="translate(46 27)"><mask id="x" fill="#fff"><use xlink:href="#w"/></mask><path d="M.287 1.076c-.02.014-.04.036-.06.035-.005 0-.01-.06-.018-.094l.057-.07.021.13" fill="#C3F4C9" mask="url(#x)"/></g><g transform="translate(46 24)"><mask id="z" fill="#fff"><use xlink:href="#y"/></mask><path d="M.336.323C.342.338.35.352.351.37L.36.54.29.457.287.463.34.319.336.323z" fill="#C3F4C9" mask="url(#z)"/></g><g transform="translate(46 35)"><mask id="B" fill="#fff"><use xlink:href="#A"/></mask><path d="M.366.037L.348.159C.345.175.338.18.33.19.33.159.321.11.325.098.337.07.353.06.368.042L.366.037z" fill="#C3F4C9" mask="url(#B)"/></g><path d="M8.021 28.105L8 28.029 8.016 28l.022.075-.017.03z" fill="#C3F4C9"/><g transform="translate(45 20)"><mask id="D" fill="#fff"><use xlink:href="#C"/></mask><path d="M.452.724L.445.907C.442.931.425.942.415.96.41.924.402.876.407.855.42.806.438.77.455.73L.452.724z" fill="#C3F4C9" mask="url(#D)"/></g><path d="M46.014 29l.018.022-.016.091a.348.348 0 0 0-.016-.022l.014-.091M46 26.018l.018-.018c.002.016.007.037.005.048-.002.012-.01.013-.016.019L46 26.018zM13.119 15.012a3.486 3.486 0 0 0-.098.02c-.006 0-.014-.009-.021-.014l.097-.018c.005 0 .014.008.022.012M15 15.024c.035-.009.071-.018.101-.024 0 0 .017.01.025.017a3 3 0 0 0-.101.025L15 15.024M44 34.047c.003-.017.004-.042.008-.046.005-.004.012.013.017.02-.002.017-.004.043-.008.046-.004.005-.011-.012-.017-.02M44.029 36.016l-.011.015-.018-.027c.006 0 .012-.006.017-.004.005.002.008.01.012.016" fill="#C3F4C9"/><g transform="translate(29 39)"><mask id="F" fill="#fff"><use xlink:href="#E"/></mask><path d="M.243.366L.136.373A1.692 1.692 0 0 0 .074.366C.09.36.101.35.121.35l.127.018L.243.366z" fill="#C3F4C9" mask="url(#F)"/></g><path fill="#C3F4C9" d="M32 37.011l.039-.011.012.019zM43.039 36.039L43 36.034c.023-.014.048-.027.046-.034l.012.032-.019.007z"/><g transform="translate(45 20)"><mask id="H" fill="#fff"><use xlink:href="#G"/></mask><path d="M.455.729L.458.605C.46.585.474.576.481.562c0 .02-.002.029-.004.06C.471.652.462.689.452.724l.003.005z" fill="#C3F4C9" mask="url(#H)"/></g><path d="M8.019 20.119A.463.463 0 0 1 8 20.101L8.011 20l.018.018-.01.101M46.028 30c0 .043.002.089-.003.13-.002.019-.016.028-.025.042.002-.021 0-.046.004-.063l.026-.105-.002-.004z" fill="#C3F4C9"/><g transform="translate(46 28)"><mask id="J" fill="#fff"><use xlink:href="#I"/></mask><path d="M.21.045c.008.032.021.062.026.1C.24.175.233.217.232.254.222.237.208.225.203.197.196.161.198.115.196.073L.21.045z" fill="#C3F4C9" mask="url(#J)"/></g><path fill="#C3F4C9" d="M44.015 30.007l-.011.031L44 30z"/><g transform="translate(46 29)"><mask id="L" fill="#fff"><use xlink:href="#K"/></mask><path d="M.222.22L.237.192l.02.073-.014.028L.222.22" fill="#C3F4C9" mask="url(#L)"/></g><path fill="#C3F4C9" d="M14.051 15.006l-.051.011.005-.017z"/><g transform="translate(46 34)"><mask id="N" fill="#fff"><use xlink:href="#M"/></mask><path d="M.253.617C.26.626.27.63.273.645.274.658.268.68.265.7.258.69.248.687.245.673.243.659.25.637.253.617" fill="#C3F4C9" mask="url(#N)"/></g><path fill="#C3F4C9" d="M44.014 33l.002.047-.016-.018zM44.007 36l.015.008c.001.006-.004.012-.007.017L44 36.016c0-.005.004-.011.007-.016"/><g transform="translate(36 39)"><mask id="P" fill="#fff"><use xlink:href="#O"/></mask><path d="M.205.95c.007.006.023.014.017.019C.215.973.187.975.17.978.162.972.145.965.151.96.158.955.186.953.205.95" fill="#C3F4C9" mask="url(#P)"/></g><path d="M12.262 15c-.079.051-.158.098-.256.04l-.006.002.267-.041-.005-.001zM31 37.002l.226.012.05.031a.429.429 0 0 1-.271-.045l-.005.002zM34 37.016l.001-.016.042.009zM38.043 37.006l-.043.01.004-.016zM11.005 16.025l.01-.025-.015.024z" fill="#C3F4C9"/><path d="M11.094 16.01L11 16.006c.017-.003.035-.008.049-.007.018.001.029.007.043.01h.002zM12.005 15.027L12.08 15l-.029.014-.051.012.005.001zM44.006 34.043L44 34l.015.005zM5.017 27.082L5 27c.004.009.01.016.013.027l.004.055zM44.001 32.136L44 32l.001.004.001.067-.002.067zM27 36h.005H27z" fill="#C3F4C9"/><path fill="#C3F4C9" d="M11.132 16l-.13.02-.002.001.137-.02zM8.003 16.001L8 16l.003.001zM28.118 36.034L28.002 36H28l.119.035zM12.019 15.05L12 15l.022.004-.009.048z"/><path fill="#C3F4C9" d="M12 15.014l.039-.014-.018.018zM45 22l.002.006L45 22zM37 37.002l.005-.002-.005.002zM30.005 37l-.005.001.005-.001zM32.004 37l-.004.001.004-.001zM42 37l.003.001L42 37z"/><g transform="translate(32 39)"><mask id="R" fill="#fff"><use xlink:href="#Q"/></mask><path d="M.173.79L.179.789.173.79z" fill="#C3F4C9" mask="url(#R)"/></g><path d="M41.004 14.001L41 14l.004.001z" fill="#C3F4C9"/><g transform="translate(46 35)"><mask id="T" fill="#fff"><use xlink:href="#S"/></mask><path d="M.368.042L.366.037l.002.005z" fill="#C3F4C9" mask="url(#T)"/></g><path d="M16.687 9.071l-.007.012h.024l-.017-.012zm6.432 1.014c.032.005.066.003.099.004-.018-.016-.032-.043-.051-.047-.028-.007-.058 0-.095.003.02.018.035.037.047.04zM2 14.217c.012-.019.025-.035.033-.058.002-.006-.014-.032-.022-.05l-.024.043.013.065zm23.707-3.562c-.187-.044-.317-.077-.449-.066-.101-.028-.202-.06-.303-.08-.194-.04-.395-.054-.586-.112l-.814-.23-.01.112-.773-.22c-.029-.008-.052-.037-.079-.056l.001.002-.204-.101.005.002c-.072-.05-.115-.039-.15-.003l-.013.004c-.197-.028-.387-.037-.564-.174-.107-.078-.275-.122-.508-.13.165.063.256.122.385.181a6.383 6.383 0 0 0-.68-.121c-.086-.013-.128-.05-.146-.097.047.004.096.013.14.01.022 0 .035-.02.051-.03-.031-.009-.073-.026-.093-.022-.038.008-.064.029-.095.044-.019.005-.035.013-.056.017-.151.026-.155.027-.269-.068-.088-.073-.137-.035-.196-.011l.004-.001c-.159-.07-.309-.162-.506-.125a.503.503 0 0 1-.176-.023c-.117-.036-.181-.018-.243.03-.03.022-.084.011-.121-.02-.02-.016-.062-.044-.078-.041-.25.038-.51-.034-.765-.046-.167-.005-.336-.057-.507-.075-.136-.105-.334-.083-.513-.11a1.052 1.052 0 0 0-.527.033c-.153.06-.303.01-.456-.014-.013-.002-.034-.027-.029-.035.047-.067-.045-.06-.08-.039-.136.079-.271.117-.455.038l.096-.01c-.01-.003-.022-.008-.028-.006a2.202 2.202 0 0 0-.065.019l-.076-.004h.002l-.455-.092c-.097-.02-.165-.01-.225.036-.022.018-.094.036-.118.028a.761.761 0 0 0-.396 0c-.044.01-.118.017-.142.004a.416.416 0 0 0-.415-.003c-.038.02-.142 0-.216-.001-.085-.002-.183-.018-.254-.002-.227.054-.406.035-.561-.075-.042-.029-.132-.03-.156.01-.051.087-.163.093-.295.097l-.747.03c-.173.004-.345-.016-.517-.017l-.05-.019-.04.013-.008.006c-.12.022-.238.05-.36.065-.221.028-.439.06-.65-.012a.464.464 0 0 0-.382.036.449.449 0 0 1-.165.051c-.222.028-.44.076-.67.06-.104-.007-.223.017-.335.029l-.41.048c-.562.063-1.123.118-1.68.198l-1.086.15c-.433.055-.864.092-1.296.184-.378.083-.766.138-1.147.21-.113.022-.27.049-.324.048-.019-.012-.098-.017-.16-.05-.047.08-.032.175-.14.163l.006-.024-.008.008v.016c-.016.031-.029.065-.047.088a.693.693 0 0 0-.18.335c-.002.012-.024.031-.034.03-.081-.005-.077.027-.068.092.016.116.01.222.005.338-.012.228-.003.46-.002.69.093.212.058.467.068.706.01.193.01.37-.087.52-.072.11-.06.254.015.393.057.107.06.227.058.354l-.011 1.193c0 .13-.003.257-.047.366a.25.25 0 0 0 .008.209c.012.026.018.07.018.105.01.294.028.59.022.883a3.04 3.04 0 0 1-.056.634c-.052.233-.067.493.03.734.039.097.052.237.066.36.02.157-.116.176-.096.304.018.119.119.182.076.357a.61.61 0 0 0-.018.15l.019.226.001-.003a.478.478 0 0 0-.001.292c.043.17.061.334.004.514a.552.552 0 0 0-.006.257c.06.218-.004.457.045.674a.368.368 0 0 1-.015.148c-.03.114-.012.217.002.333.031.301.072.615-.093.844-.011.014-.018.038-.025.06-.02.074-.03.17.012.209.127.114.134.297.11.516-.011.1-.01.204-.01.307 0 .152.02.308-.067.413-.018.02-.02.093-.022.143-.006.114-.016.23-.011.344.006.161-.011.325.06.474.033.069.02.215.028.327-.079.112-.06.273-.058.425.003.131-.003.257-.045.37-.049.134-.04.307.009.39.06.107.04.196.041.308.003.199-.06.327-.12.465l-.02.008.018-.012c.063.064.08.163.08.29.002.438.02.913-.011 1.32a.803.803 0 0 0 0 .226.813.813 0 0 1-.031.329c-.003.011-.015.019-.026.032l-.094-.143.006.267c.002.036.026.061.07.059.058-.004.076.039.065.08a.592.592 0 0 1-.07.17.33.33 0 0 0-.064.17 6.353 6.353 0 0 1-.118 1.004.32.32 0 0 0-.001.104.77.77 0 0 1-.083.434 1.199 1.199 0 0 0-.104.437c0 .017.003.036.009.053.03.112.076.222.132.327.022.04.045.081.033.141-.023-.013-.037-.018-.047-.026-.036-.04-.07-.081-.1-.125l.003-.018v.018c-.01.028.013.071-.04.085-.014-.013-.032-.024-.044-.041a.719.719 0 0 1-.088-.143c-.036-.085-.125.028-.16-.056l-.033.122v-.003c.014.06.023.124.05.18.082.167.196.32.328.46.027.027.047.06.072.094-.154.035-.287-.055-.396-.161a2.17 2.17 0 0 1-.303-.389.328.328 0 0 1-.054-.248.338.338 0 0 1-.173-.215 3.966 3.966 0 0 1-.102-.382l-.124-.602c-.018-.101-.017-.206-.024-.309-.02-.241-.078-.478-.097-.72-.027-.359-.086-.715-.123-1.073-.018-.1-.035-.485-.051-.767l-.042-.904c-.026-.774-.05-1.516-.077-2.274l-.014-.19a2.802 2.802 0 0 1 .013-.764c.037-.224.03-.45.01-.686-.034-.43-.053-.866-.07-1.3l-.013-.924-.031-2.935-.009-2.313c0-.702-.002-1.39-.003-2.083 0-.361-.002-.72-.003-1.082l.015-1.543c0-.077-.008-.167.01-.228.03-.072.054-.274.08-.428.023-.162.042-.325.053-.505a.78.78 0 0 1 .066-.179c.067-.159.146-.312.24-.454a2.857 2.857 0 0 1 1.65-1.206c.224-.058.32-.068.477-.1l.731-.146c.685-.12 1.372-.215 2.058-.312.725-.096 1.451-.198 2.18-.268a55.571 55.571 0 0 1 2.62-.196A52.085 52.085 0 0 1 13.44 7c.787-.002 1.573.02 2.362.066.486.015.972.05 1.459.098.644.045 1.285.13 1.926.228.506.062 1.01.134 1.512.244.501.107 1.01.17 1.504.322L24.2 8.5c.47.137.948.247 1.434.33a12.18 12.18 0 0 0 1.605.266c.478.061.957.098 1.438.147 1.37.14 2.757.12 4.146.09.787-.01 1.576-.074 2.363-.145.85-.064 1.697-.163 2.543-.277l1.406-.205.458-.077.224-.04c.063-.011.184-.043.148-.02v.009l.112-.044c.325-.082.66-.095.98-.034.323.06.617.218.844.434.044.038.066.094.1.148-.102.028-.213 0-.26.09-.067.115-.181.14-.306.146-.061.002-.122.02-.178.023-.295.023-.535.159-.734.275a.672.672 0 0 0-.07.048l-.016.013-.009.006-.004.003h-.001c-.016.007.153-.06.08-.032v.001h-.001l-.002.002-.006.003-.086.048c-.145.07-.173.095-.254.14a2.46 2.46 0 0 1-.436.206l-.613.218-.307.106-.58.142c-.587.13-1.17.283-1.777.345-.08.01-.184.007-.25.088.182-.023.342-.045.505-.08.211-.044.287-.036.536-.003-.718.132-1.439.216-2.158.248-.404.028-.819.074-1.218.042a.442.442 0 0 0-.152.021c-.14.042-.278.045-.424.031-.087-.008-.18.002-.272.004-.29.01-.577.02-.867.028-.185.005-.37-.01-.554-.01-.79.008-1.583-.032-2.374-.076-.117-.003-.24-.016-.287-.098-.01-.018-.079-.04-.124-.047a1.006 1.006 0 0 0-.383.004c-.27.064-.572.053-.872.025-.068-.01-.171-.045-.197-.077-.108-.131-.27-.144-.464-.133-.057.004-.12-.004-.233-.01l.36.073c.018.003.041.024.04.035-.002.01-.024.022-.044.025a.424.424 0 0 1-.114 0 15.734 15.734 0 0 1-1.698-.29c-.026-.006-.05-.029-.082-.049.056-.01.1-.02.142-.03.192.058.193.057.451.069z" fill="#333"/><path d="M38.006 10.445c.047-.01.091-.022.14-.034l.52-.192c.148-.056.2-.09.304-.137.01-.004.018-.018.025-.029.003-.004.006-.016.004-.02-.003-.013-.012-.035-.015-.033l-.151.056c-.063.03-.115.056-.26.111-.096.04-.191.08-.304.125l-.269.125.006.028zM37.198 11.11c.028-.01.073-.02.108-.039.019-.009.031-.032.025-.044-.006-.012-.034-.029-.055-.027-.07.008-.145.018-.213.037-.031.01-.064.045-.063.063.001.013.057.021.094.024.026.003.059-.007.104-.014M37.02 11.028c.011-.005.028-.009.03-.014.002-.005-.009-.013-.017-.014-.009 0-.022.008-.033.012l.02.016zM27.382 32.769l.008-.011-.024-.001.016.012zm-6.513-1.343c-.033-.002-.066.003-.098.005.019.015.035.04.054.043.029.004.059-.006.094-.012-.022-.016-.039-.035-.05-.036zM42 27.78c-.01.02-.024.036-.032.059-.002.005.013.032.022.049l.023-.043-.013-.065zM18.256 31.08c.19.03.32.052.45.033.102.019.205.044.306.056l.59.057c.273.04.545.102.828.156v-.113l.801.159c.033.008.061.033.09.052v-.002l.227.107-.005-.002c.08.052.125.041.16.006l.014-.004c.216.032.426.046.62.187.115.085.303.12.553.15-.173-.08-.277-.13-.416-.197l.714.168c.084.021.121.063.135.112-.046-.009-.093-.023-.137-.025-.021-.002-.036.017-.053.026.03.01.07.032.09.03.039-.004.066-.022.098-.034.018-.004.036-.01.056-.01.15-.011.154-.016.261.088.08.08.133.045.193.026l-.004.001c.15.084.295.18.494.152a.412.412 0 0 1 .174.037c.111.049.176.034.241-.008.03-.02.083-.004.118.03.019.018.058.048.072.047.249-.013.504.07.755.097.164.013.333.065.5.1.126.116.324.108.499.147.193.042.371.045.525-.005.154-.05.302.001.452.03.013.003.033.03.027.037-.05.066.041.06.078.042.137-.067.274-.1.451-.01l-.095.006c.01.002.021.008.029.007l.064-.015.074.008h-.001l.447.113c.096.024.164.017.225-.027.022-.018.094-.033.12-.024.136.047.26.03.393.01.043-.006.117-.01.14.003.136.08.259.094.41.025.04-.018.141.005.215.009.085.004.181.025.252.01.23-.047.406-.026.557.087.041.03.13.036.155-.002.055-.086.165-.087.297-.086l.742-.012.512.027.048.02.041-.011.009-.006c.118-.02.236-.044.358-.055.22-.02.435-.05.645.021.11.037.255.04.378-.033a.448.448 0 0 1 .164-.045c.22-.025.438-.073.666-.055.104.008.221-.012.332-.027l.408-.05a41.788 41.788 0 0 0 1.669-.2l1.074-.163c.429-.065.857-.107 1.283-.21l1.133-.24c.13-.028.23-.051.388-.071.025.013.09.02.148.06.042-.075.022-.17.127-.153l-.005.025.008-.009-.002-.016c.017-.027.022-.063.044-.083.018-.021.037-.042.053-.065a.71.71 0 0 0 .125-.271c.002-.012.025-.031.035-.03.08.002.077-.022.067-.095-.017-.115-.01-.222-.004-.34.013-.227.004-.458.003-.689-.093-.212-.056-.466-.066-.705-.009-.194-.01-.37.088-.52.072-.11.062-.254-.014-.394-.058-.106-.06-.227-.058-.353l.015-1.193c0-.13.004-.258.047-.367a.248.248 0 0 0-.006-.208.306.306 0 0 1-.02-.106c-.009-.295-.025-.59-.02-.882.006-.212.011-.424.06-.635.052-.233.067-.492-.028-.734-.039-.098-.052-.237-.067-.36-.02-.158.117-.177.098-.304-.018-.119-.119-.182-.075-.357a.608.608 0 0 0 .017-.149l-.017-.226-.002.002a.479.479 0 0 0 .002-.292.89.89 0 0 1-.003-.514.553.553 0 0 0 .006-.257c-.058-.219.007-.458-.044-.676a.365.365 0 0 1 .017-.146c.03-.114.011-.218-.001-.334-.031-.3-.07-.614.095-.843a.186.186 0 0 0 .024-.062c.02-.073.032-.168-.01-.207-.129-.114-.134-.297-.11-.516.012-.1.011-.205.011-.308 0-.151-.019-.307.07-.413.015-.02.017-.092.02-.142.007-.115.018-.23.013-.345-.006-.16.01-.325-.06-.474-.033-.068-.02-.215-.026-.326.079-.113.06-.274.057-.427-.001-.13.005-.256.047-.367.05-.135.04-.308-.008-.392-.06-.107-.04-.195-.04-.307-.002-.2.062-.328.122-.465l.02-.009-.019.012c-.062-.064-.08-.163-.08-.29 0-.438-.018-.912.016-1.32a.78.78 0 0 0 0-.227.827.827 0 0 1 .03-.328c.003-.011.017-.02.028-.032l.093.143-.005-.267c-.002-.036-.026-.062-.07-.06-.058.004-.075-.038-.065-.08a.561.561 0 0 1 .07-.17.337.337 0 0 0 .065-.17c.017-.339.05-.674.12-1.006a.292.292 0 0 0 .002-.102.761.761 0 0 1 .081-.425c.057-.129.089-.28.095-.442 0-.018-.005-.036-.01-.054a1.708 1.708 0 0 0-.135-.332c-.021-.043-.044-.083-.03-.144.024.014.037.02.046.03.036.039.067.083.099.126l-.003.019V9.7c.011-.029-.014-.071.04-.084.015.012.032.024.045.04a.842.842 0 0 1 .088.143c.035.086.124-.028.158.055h.001l.032-.12v.002c-.012-.06-.021-.122-.048-.178a2.216 2.216 0 0 0-.304-.458c-.023-.027-.04-.06-.06-.095.151-.028.272.064.373.168.11.113.203.244.29.379.052.08.068.161.054.243a.34.34 0 0 1 .175.208c.042.123.077.25.11.378l.128.618c.019.102.015.207.024.31.02.241.076.478.095.72.025.36.084.716.122 1.075.016.1.032.485.047.768l.04.904.072 2.274.014.19c.028.258.026.51-.016.763-.037.225-.03.451-.012.687.034.43.053.866.068 1.3l.01.925.025 2.935.003 2.313c0 .701 0 1.39-.003 2.084l.002 1.08-.019 1.544c0 .077.007.167-.012.227-.03.073-.051.266-.077.425a5.585 5.585 0 0 0-.054.505c-.001.04-.04.12-.065.179-.063.16-.146.31-.238.455l-.062.094a2.74 2.74 0 0 1-1.652 1.117l-.386.088-.732.168c-.686.139-1.373.25-2.063.356a46.88 46.88 0 0 1-2.19.29c-.876.086-1.755.142-2.635.18a43.397 43.397 0 0 1-3.28.024c-.788-.026-1.58-.08-2.368-.16-.486-.051-.975-.098-1.46-.17a30.17 30.17 0 0 1-1.921-.35 25.756 25.756 0 0 1-1.498-.358c-.497-.127-1.002-.302-1.443-.407l-.937-.251c-.32-.06-.641-.12-.964-.182-.48-.102-.976-.144-1.469-.203a15.222 15.222 0 0 0-1.634-.148c-.526-.021-.973-.04-1.456-.058-1.387-.073-2.784.01-4.181.063-.793.026-1.586.108-2.378.173-.855.08-1.71.159-2.56.27l-1.42.179-.86.121c.002-.005.003-.012.002-.02l-.092.038a1.923 1.923 0 0 1-.994.016 1.75 1.75 0 0 1-.808-.46c-.04-.039-.062-.094-.093-.145.1-.03.208-.003.257-.09.068-.117.183-.14.307-.142l.181-.016c.296-.006.554-.128.713-.244.022-.012.038-.03.056-.045l.003-.002.002-.002-.065.027v-.001h.001v-.001h.003l.023-.013.043-.023.091-.045c.137-.06.158-.083.244-.126.142-.076.286-.144.44-.192l.614-.203c.105-.032.208-.065.308-.098.201-.045.395-.09.578-.13.585-.128 1.168-.262 1.769-.331.08-.008.184-.005.25-.085-.181.021-.341.04-.503.076-.21.045-.284.041-.532.002.714-.13 1.431-.205 2.145-.246.402-.018.81-.082 1.209-.056a.437.437 0 0 0 .151-.02c.139-.042.276-.042.42-.034.088.005.18-.007.27-.013.288-.014.574-.042.862-.045l.55-.008c.784-.036 1.572-.018 2.359-.018.117.004.24.004.289.085.012.02.08.036.126.04.132.014.26.012.38-.024.265-.081.564-.085.863-.077.069.004.173.033.201.063.114.125.276.126.467.102.058-.007.12-.003.233-.006l-.362-.048c-.018-.002-.042-.021-.042-.032 0-.01.022-.025.042-.028a.48.48 0 0 1 .113-.009c.567.036 1.134.077 1.701.162.028.004.053.026.087.042l-.139.042c-.195-.043-.196-.043-.452-.035zM4.994 31l-.14.033-.519.175-.305.126c-.01.004-.018.018-.025.028-.003.005-.006.016-.005.02.004.013.012.035.015.034l.152-.049.259-.106.305-.113.269-.119L4.994 31z" fill="#333"/><path d="M6.134 31.013c-.027.009-.072.02-.107.037-.018.009-.03.03-.026.043.006.013.035.03.055.028.07-.006.144-.014.212-.032.03-.01.065-.044.063-.062 0-.013-.057-.022-.093-.026-.026-.003-.059.006-.104.012M7.03 31c-.01.005-.028.009-.03.014-.002.005.01.014.017.014.01 0 .022-.008.032-.012L7.03 31zM18.884 18.259l.009.008.003-.01-.012.002zm1.927-2.06c.012-.01.019-.025.027-.037-.013-.007-.03-.022-.036-.019-.01.005-.014.024-.022.04.014.007.028.018.031.016zm-.76 10.15c0-.014.001-.029-.002-.04l-.03.006.001.03.031.004zm1.755-10.518c-.077.007-.133.01-.177.055-.042 0-.086-.005-.127.004l-.224.089c-.107.03-.214.061-.32.113l.049.1c-.101.047-.2.08-.292.129-.012.006-.033-.006-.049-.01l-.105.01h.002c-.044-.008-.049.021-.037.064v.01c-.061.066-.111.132-.227.119-.07-.011-.128.047-.185.137l.192-.041c-.081.075-.153.141-.218.203-.027.026-.06.02-.095-.007.012-.018.026-.032.035-.054.003-.01-.007-.029-.01-.044-.013.007-.033.014-.034.026-.003.022.006.048.01.072l.001.037c-.011.085-.01.086-.098.07-.068-.011-.052.035-.046.077v-.003c-.079.022-.179.02-.18.14 0 .026-.026.051-.048.062-.05.025-.05.063-.025.12.012.026-.007.04-.04.036-.015-.003-.044-.002-.045.005-.023.12-.116.195-.167.297-.032.067-.095.115-.146.17-.114-.003-.126.096-.18.156-.058.068-.085.145-.06.235.026.091-.032.136-.074.19-.003.005-.028.003-.035-.003-.054-.051-.057-.008-.046.017.047.09.06.162-.044.202l.006-.044-.009.01a.92.92 0 0 0 .005.034l-.017.028h.002c-.056.048-.099.104-.15.155-.033.034-.032.068.002.111.013.017.02.054.008.06-.06.043-.059.104-.056.167 0 .02-.002.055-.017.061-.089.033-.113.085-.063.174.014.022-.019.06-.03.09-.014.036-.044.072-.039.107.016.11-.013.184-.138.223-.033.01-.047.048-.013.069.077.044.07.093.054.15-.032.107-.044.218-.063.328-.016.076-.05.148-.076.222l-.025.019.007.02.005.005.02.166c.006.102.015.2-.077.287-.05.046-.067.112-.008.174.019.02.03.05.034.077.006.101.034.2-.003.303-.016.047-.005.1-.004.15-.003.063.01.124.014.186.014.253.027.505.071.753.017.164.057.321.09.48.028.194.053.387.13.569l.178.486c.037.108.081.21.022.337.074.037.179.035.146.144l-.023-.011.007.01.015.002c.026.023.058.041.072.07l.21.357c.007.011.004.041-.003.047-.066.045-.04.081-.006.103a.33.33 0 0 1 .097.111c.053.085.124.158.186.235.133 0 .183.101.262.166.064.051.111.107.1.218-.01.084.046.117.14.095.07-.017.11.014.15.05.13.101.27.19.405.285.047.025.093.05.113.11.014.04.042.047.081.032a.074.074 0 0 1 .048.003c.11.054.23.07.34.118a.88.88 0 0 1 .23.137c.08.071.187.113.3.04.045-.025.103-.036.155-.045.064-.013.057.124.111.11.052-.014.084-.112.151-.06.018.014.04.025.06.023.03-.001.061-.013.092-.02V26.9c.038.036.078.025.118 0 .067-.045.13-.063.207-.006a.096.096 0 0 0 .103-.01c.08-.072.185-.02.263-.081.013-.01.041-.001.06.004.051.017.088-.012.13-.036.11-.067.217-.122.36-.009a.07.07 0 0 0 .033.013c.035.008.077.003.076-.043-.002-.137.063-.17.157-.179.041-.007.08-.03.116-.05.056-.031.104-.077.186-.02.016.01.044-.003.064-.01a.358.358 0 0 0 .132-.066c.055-.044.124-.07.134-.164.005-.045.065-.067.1-.1.088.039.128-.027.178-.07.042-.038.087-.069.151-.069.079-.001.134-.056.126-.116-.009-.08.032-.092.065-.128.059-.065.145-.06.233-.064l.017.011-.017-.008c-.026-.063-.007-.106.03-.147a6.68 6.68 0 0 1 .367-.452l.013-.015a.643.643 0 0 0 .11-.168c.043-.092.113-.16.18-.232.007-.007.023-.007.036-.012.006.043.012.082.021.16.048-.095.073-.141.11-.216.014-.03.005-.062-.035-.08-.053-.025-.05-.067-.024-.095a.51.51 0 0 1 .136-.101.275.275 0 0 0 .12-.116c.15-.273.279-.553.444-.828a.226.226 0 0 0 .026-.093c.017-.155.097-.28.19-.405.106-.14.188-.287.285-.438.01-.017.015-.037.021-.056.042-.123.07-.25.096-.376.01-.049.023-.098.075-.133.007.028.014.042.013.055l-.008.165-.012.014.01-.014c.027-.016.034-.065.085-.04.003.019.01.04.01.06-.004.055 0 .112-.016.166-.022.088.117.047.098.13l.098-.075-.003.002c.026-.051.054-.101.067-.157l.092-.49c.006-.031.023-.061.035-.096.116.09.126.216.128.341l-.01.402a.274.274 0 0 1-.09.194.29.29 0 0 1 .062.223l-.024.315-.033.612c-.018.111-.058.22-.086.33-.06.263-.109.527-.205.785-.143.378-.282.766-.485 1.13l-.088.16c-.147.261-.32.513-.508.754a6.355 6.355 0 0 1-.995.98.874.874 0 0 0-.09.08.862.862 0 0 1-.412.244 1.173 1.173 0 0 0-.387.195c-.234.142-.487.27-.75.368-.188.062-.382.118-.577.16a6.039 6.039 0 0 1-1.905.065c-.501-.07-.982-.233-1.442-.428a5.32 5.32 0 0 1-1.142-.688c-.174-.146-.367-.275-.52-.44a5.7 5.7 0 0 1-.632-.719c-.03-.037-.071-.075-.08-.116-.03-.134-.063-.252-.207-.306-.016-.006-.025-.038-.036-.058-.033-.053-.068-.114-.097-.162-.165-.298-.329-.599-.452-.913l-.172-.4a9.36 9.36 0 0 1-.308-1.163 7.831 7.831 0 0 1-.165-1.246 8.36 8.36 0 0 1 .05-1.486c.05-.61.182-1.214.353-1.804.136-.424.305-.837.5-1.24.137-.24.245-.496.403-.727.193-.313.429-.599.66-.888.389-.436.806-.86 1.31-1.194.341-.232.713-.43 1.105-.589a5.12 5.12 0 0 1 .92-.285c.35-.077.707-.079 1.063-.102.316.004.638.008.944.097.879.203 1.725.585 2.378 1.176.374.326.706.69.99 1.082.3.427.537.887.724 1.357l.154.418c.082.244.141.494.21.74.068.349.145.694.172 1.044a6.5 6.5 0 0 1 .049.819c.011.258-.056.511-.11.755-.01.046-.04.085-.065.131-.084-.054-.123-.15-.222-.147-.134.004-.22-.078-.278-.191-.028-.057-.067-.107-.09-.163-.114-.286-.298-.538-.402-.816-.124-.27-.273-.516-.385-.78-.095-.276-.25-.525-.379-.775l-.134-.228c-.124-.236-.305-.434-.425-.666-.019-.029-.03-.076-.108-.063.043.067.082.123.13.176.057.074.06.11.044.237-.161-.263-.322-.52-.483-.775-.085-.151-.22-.26-.293-.419-.008-.019-.032-.032-.052-.039-.066-.017-.094-.07-.13-.118-.021-.032-.055-.052-.083-.076-.093-.074-.177-.163-.276-.227l-.182-.135a3.903 3.903 0 0 0-.862-.417c-.046-.015-.095-.017-.095-.101-.001-.019-.026-.04-.043-.046a.189.189 0 0 0-.161.002.695.695 0 0 1-.36.06c-.027-.003-.067-.027-.077-.056-.042-.12-.112-.122-.19-.074-.023.012-.049.015-.095.027l.148.014c.008 0 .017.018.017.028 0 .01-.008.027-.017.033a.092.092 0 0 1-.044.018 3.674 3.674 0 0 0-.668.073c-.012.002-.026-.015-.042-.024l.042-.067c.082.005.08.004.177-.053z" fill="#333"/><path d="M25 18.015c.012.029.019.061.034.088l.195.349c.061.096.096.204.146.305.005.012.02.02.031.028.005.003.017.006.021.003.011-.007.032-.022.03-.026l-.071-.195c-.032-.085-.085-.161-.127-.233l-.115-.182a15.806 15.806 0 0 1-.118-.152l-.026.015z" fill="#333"/><path d="M25.018 18.099c.011.008.023.023.042.03.01.005.03 0 .04-.006.012-.007.025-.027.022-.035a.22.22 0 0 0-.045-.08c-.01-.01-.044-.01-.06-.001-.013.006-.017.035-.017.052 0 .013.01.023.018.04" fill="#333"/><path d="M25 18.016l.014.007.011-.014-.013-.009-.012.016z" fill="#333"/></g></svg>
